<mxfile host="app.diagrams.net" modified="2022-05-17T21:55:37.115Z" agent="5.0 (Windows NT 10.0; Win64; x64) AppleWebKit/537.36 (KHTML, like Gecko) Chrome/101.0.4951.67 Safari/537.36" etag="dJLsRQg0nd-tLlHDFn6a" version="18.0.6" type="github">
  <diagram id="QPKTLS5UD98ohhLHN6K0" name="Page-1">
    <mxGraphModel dx="2390" dy="2326" grid="1" gridSize="10" guides="1" tooltips="1" connect="1" arrows="1" fold="1" page="1" pageScale="1" pageWidth="1169" pageHeight="1654" background="#F1FAEE" math="0" shadow="0">
      <root>
        <mxCell id="0" />
        <mxCell id="1" parent="0" />
        <mxCell id="G66V92S9Or8h3i_YCEw--15" style="edgeStyle=orthogonalEdgeStyle;rounded=0;orthogonalLoop=1;jettySize=auto;html=1;exitX=1;exitY=0.5;exitDx=0;exitDy=0;entryX=0.25;entryY=1;entryDx=0;entryDy=0;startArrow=none;" parent="1" source="QalJcyVQs0sEGU517PmC-19" target="G66V92S9Or8h3i_YCEw--9" edge="1">
          <mxGeometry relative="1" as="geometry">
            <mxPoint x="550" y="200" as="targetPoint" />
            <Array as="points">
              <mxPoint x="310" y="190" />
              <mxPoint x="548" y="190" />
            </Array>
          </mxGeometry>
        </mxCell>
        <mxCell id="ABSDRnwuosa7NFPbyCO2-1" value="Course" style="whiteSpace=wrap;html=1;align=center;" parent="1" vertex="1">
          <mxGeometry x="210" y="180" width="100" height="40" as="geometry" />
        </mxCell>
        <mxCell id="ABSDRnwuosa7NFPbyCO2-2" value="Student" style="whiteSpace=wrap;html=1;align=center;" parent="1" vertex="1">
          <mxGeometry x="790" y="180" width="100" height="40" as="geometry" />
        </mxCell>
        <mxCell id="ABSDRnwuosa7NFPbyCO2-3" value="ID" style="ellipse;whiteSpace=wrap;html=1;align=center;" parent="1" vertex="1">
          <mxGeometry x="60" y="80" width="100" height="40" as="geometry" />
        </mxCell>
        <mxCell id="ABSDRnwuosa7NFPbyCO2-4" value="Name" style="ellipse;whiteSpace=wrap;html=1;align=center;" parent="1" vertex="1">
          <mxGeometry x="240" y="80" width="100" height="40" as="geometry" />
        </mxCell>
        <mxCell id="ABSDRnwuosa7NFPbyCO2-5" value="Assistant" style="ellipse;whiteSpace=wrap;html=1;align=center;" parent="1" vertex="1">
          <mxGeometry x="50" y="170" width="100" height="40" as="geometry" />
        </mxCell>
        <mxCell id="ABSDRnwuosa7NFPbyCO2-6" value="StartDate" style="ellipse;whiteSpace=wrap;html=1;align=center;" parent="1" vertex="1">
          <mxGeometry x="220" y="270" width="100" height="40" as="geometry" />
        </mxCell>
        <mxCell id="ABSDRnwuosa7NFPbyCO2-7" value="Duration" style="ellipse;whiteSpace=wrap;html=1;align=center;" parent="1" vertex="1">
          <mxGeometry x="50" y="270" width="100" height="40" as="geometry" />
        </mxCell>
        <mxCell id="ABSDRnwuosa7NFPbyCO2-8" value="Lecturer" style="ellipse;whiteSpace=wrap;html=1;align=center;" parent="1" vertex="1">
          <mxGeometry x="390" y="90" width="100" height="40" as="geometry" />
        </mxCell>
        <mxCell id="ABSDRnwuosa7NFPbyCO2-9" value="Lname" style="ellipse;whiteSpace=wrap;html=1;align=center;" parent="1" vertex="1">
          <mxGeometry x="720" y="255.43" width="100" height="40" as="geometry" />
        </mxCell>
        <mxCell id="ABSDRnwuosa7NFPbyCO2-10" value="DateOfBirth" style="ellipse;whiteSpace=wrap;html=1;align=center;" parent="1" vertex="1">
          <mxGeometry x="880" y="250" width="100" height="40" as="geometry" />
        </mxCell>
        <mxCell id="ABSDRnwuosa7NFPbyCO2-11" value="FName" style="ellipse;whiteSpace=wrap;html=1;align=center;" parent="1" vertex="1">
          <mxGeometry x="870" y="90" width="100" height="40" as="geometry" />
        </mxCell>
        <mxCell id="ABSDRnwuosa7NFPbyCO2-12" value="ID" style="ellipse;whiteSpace=wrap;html=1;align=center;" parent="1" vertex="1">
          <mxGeometry x="700" y="90" width="100" height="40" as="geometry" />
        </mxCell>
        <mxCell id="ABSDRnwuosa7NFPbyCO2-18" value="" style="line;strokeWidth=2;html=1;rotation=30;" parent="1" vertex="1">
          <mxGeometry x="117.32" y="120" width="120" height="60" as="geometry" />
        </mxCell>
        <mxCell id="ABSDRnwuosa7NFPbyCO2-19" value="" style="line;strokeWidth=4;html=1;perimeter=backbonePerimeter;points=[];outlineConnect=0;" parent="1" vertex="1">
          <mxGeometry x="150" y="185" width="60" height="10" as="geometry" />
        </mxCell>
        <mxCell id="ABSDRnwuosa7NFPbyCO2-20" value="" style="line;strokeWidth=4;html=1;perimeter=backbonePerimeter;points=[];outlineConnect=0;rotation=-45;" parent="1" vertex="1">
          <mxGeometry x="128.11" y="245.43" width="92.93" height="10" as="geometry" />
        </mxCell>
        <mxCell id="ABSDRnwuosa7NFPbyCO2-21" value="" style="line;strokeWidth=4;direction=south;html=1;perimeter=backbonePerimeter;points=[];outlineConnect=0;" parent="1" vertex="1">
          <mxGeometry x="255" y="220" width="10" height="50" as="geometry" />
        </mxCell>
        <mxCell id="ABSDRnwuosa7NFPbyCO2-22" value="" style="line;strokeWidth=4;direction=south;html=1;perimeter=backbonePerimeter;points=[];outlineConnect=0;" parent="1" vertex="1">
          <mxGeometry x="280" y="120" width="10" height="60" as="geometry" />
        </mxCell>
        <mxCell id="ABSDRnwuosa7NFPbyCO2-23" value="" style="line;strokeWidth=4;direction=south;html=1;perimeter=backbonePerimeter;points=[];outlineConnect=0;rotation=60;" parent="1" vertex="1">
          <mxGeometry x="345" y="97.74" width="10" height="112.5" as="geometry" />
        </mxCell>
        <mxCell id="ABSDRnwuosa7NFPbyCO2-24" value="" style="line;strokeWidth=4;direction=south;html=1;perimeter=backbonePerimeter;points=[];outlineConnect=0;rotation=20;" parent="1" vertex="1">
          <mxGeometry x="878.55" y="128.24" width="10" height="51.51" as="geometry" />
        </mxCell>
        <mxCell id="ABSDRnwuosa7NFPbyCO2-25" value="" style="line;strokeWidth=4;direction=south;html=1;perimeter=backbonePerimeter;points=[];outlineConnect=0;rotation=-30;" parent="1" vertex="1">
          <mxGeometry x="795.67" y="121.16" width="10" height="62.68" as="geometry" />
        </mxCell>
        <mxCell id="ABSDRnwuosa7NFPbyCO2-26" value="" style="line;strokeWidth=4;direction=south;html=1;perimeter=backbonePerimeter;points=[];outlineConnect=0;rotation=30;" parent="1" vertex="1">
          <mxGeometry x="776.4" y="217" width="10" height="44.72" as="geometry" />
        </mxCell>
        <mxCell id="ABSDRnwuosa7NFPbyCO2-27" value="" style="line;strokeWidth=4;direction=south;html=1;perimeter=backbonePerimeter;points=[];outlineConnect=0;rotation=-15;" parent="1" vertex="1">
          <mxGeometry x="711.74" y="217.05" width="361.4" height="43.12" as="geometry" />
        </mxCell>
        <mxCell id="G66V92S9Or8h3i_YCEw--14" style="edgeStyle=orthogonalEdgeStyle;rounded=0;orthogonalLoop=1;jettySize=auto;html=1;exitX=0;exitY=0.5;exitDx=0;exitDy=0;entryX=0.75;entryY=1;entryDx=0;entryDy=0;startArrow=none;" parent="1" source="QalJcyVQs0sEGU517PmC-18" target="G66V92S9Or8h3i_YCEw--9" edge="1">
          <mxGeometry relative="1" as="geometry">
            <mxPoint x="599.8600000000001" y="130" as="sourcePoint" />
            <Array as="points">
              <mxPoint x="598" y="190" />
            </Array>
          </mxGeometry>
        </mxCell>
        <mxCell id="QalJcyVQs0sEGU517PmC-1" style="edgeStyle=orthogonalEdgeStyle;rounded=0;orthogonalLoop=1;jettySize=auto;html=1;exitX=0.5;exitY=1;exitDx=0;exitDy=0;entryX=0.178;entryY=-0.075;entryDx=0;entryDy=0;entryPerimeter=0;" edge="1" parent="1" source="ABSDRnwuosa7NFPbyCO2-42" target="QalJcyVQs0sEGU517PmC-16">
          <mxGeometry relative="1" as="geometry">
            <mxPoint x="200" y="-40" as="targetPoint" />
          </mxGeometry>
        </mxCell>
        <mxCell id="QalJcyVQs0sEGU517PmC-2" style="edgeStyle=orthogonalEdgeStyle;rounded=0;orthogonalLoop=1;jettySize=auto;html=1;exitX=1;exitY=0.75;exitDx=0;exitDy=0;" edge="1" parent="1" source="ABSDRnwuosa7NFPbyCO2-42">
          <mxGeometry relative="1" as="geometry">
            <mxPoint x="270" y="-90" as="targetPoint" />
          </mxGeometry>
        </mxCell>
        <mxCell id="ABSDRnwuosa7NFPbyCO2-42" value="Exam" style="whiteSpace=wrap;html=1;align=center;" parent="1" vertex="1">
          <mxGeometry x="160" y="-120" width="100" height="40" as="geometry" />
        </mxCell>
        <mxCell id="ABSDRnwuosa7NFPbyCO2-77" value="Trainer" style="whiteSpace=wrap;html=1;align=center;" parent="1" vertex="1">
          <mxGeometry x="110" y="410" width="100" height="40" as="geometry" />
        </mxCell>
        <mxCell id="ABSDRnwuosa7NFPbyCO2-78" value="TID" style="ellipse;whiteSpace=wrap;html=1;align=center;" parent="1" vertex="1">
          <mxGeometry x="10.000000000000014" y="349.5" width="100" height="40" as="geometry" />
        </mxCell>
        <mxCell id="ABSDRnwuosa7NFPbyCO2-79" value="TName" style="ellipse;whiteSpace=wrap;html=1;align=center;" parent="1" vertex="1">
          <mxGeometry x="10" y="470" width="100" height="40" as="geometry" />
        </mxCell>
        <mxCell id="ABSDRnwuosa7NFPbyCO2-80" value="" style="line;strokeWidth=4;direction=south;html=1;perimeter=backbonePerimeter;points=[];outlineConnect=0;rotation=60;" parent="1" vertex="1">
          <mxGeometry x="80.48" y="432.5" width="10" height="50" as="geometry" />
        </mxCell>
        <mxCell id="ABSDRnwuosa7NFPbyCO2-81" value="" style="line;strokeWidth=4;direction=south;html=1;perimeter=backbonePerimeter;points=[];outlineConnect=0;rotation=-65;" parent="1" vertex="1">
          <mxGeometry x="85.67" y="372.76" width="10" height="54.56" as="geometry" />
        </mxCell>
        <mxCell id="ABSDRnwuosa7NFPbyCO2-82" value="Teaches" style="shape=rhombus;perimeter=rhombusPerimeter;whiteSpace=wrap;html=1;align=center;" parent="1" vertex="1">
          <mxGeometry x="128.11" y="310" width="120" height="60" as="geometry" />
        </mxCell>
        <mxCell id="ABSDRnwuosa7NFPbyCO2-83" value="" style="edgeStyle=entityRelationEdgeStyle;fontSize=12;html=1;endArrow=ERmany;startArrow=ERmany;rounded=0;entryX=0.25;entryY=1;entryDx=0;entryDy=0;" parent="1" target="ABSDRnwuosa7NFPbyCO2-1" edge="1">
          <mxGeometry width="100" height="100" relative="1" as="geometry">
            <mxPoint x="190" y="310" as="sourcePoint" />
            <mxPoint x="290" y="210" as="targetPoint" />
          </mxGeometry>
        </mxCell>
        <mxCell id="ABSDRnwuosa7NFPbyCO2-84" value="" style="edgeStyle=entityRelationEdgeStyle;fontSize=12;html=1;endArrow=ERmany;startArrow=ERmany;rounded=0;entryX=0.5;entryY=1;entryDx=0;entryDy=0;" parent="1" target="ABSDRnwuosa7NFPbyCO2-82" edge="1">
          <mxGeometry width="100" height="100" relative="1" as="geometry">
            <mxPoint x="160" y="410" as="sourcePoint" />
            <mxPoint x="260" y="310" as="targetPoint" />
          </mxGeometry>
        </mxCell>
        <mxCell id="G66V92S9Or8h3i_YCEw--17" style="edgeStyle=orthogonalEdgeStyle;rounded=0;orthogonalLoop=1;jettySize=auto;html=1;exitX=1;exitY=0.5;exitDx=0;exitDy=0;entryX=0;entryY=0.5;entryDx=0;entryDy=0;" parent="1" source="G66V92S9Or8h3i_YCEw--1" target="G66V92S9Or8h3i_YCEw--16" edge="1">
          <mxGeometry relative="1" as="geometry" />
        </mxCell>
        <mxCell id="QalJcyVQs0sEGU517PmC-11" style="edgeStyle=orthogonalEdgeStyle;rounded=0;orthogonalLoop=1;jettySize=auto;html=1;exitX=0;exitY=1;exitDx=0;exitDy=0;" edge="1" parent="1" source="G66V92S9Or8h3i_YCEw--1">
          <mxGeometry relative="1" as="geometry">
            <mxPoint x="520" y="-70" as="targetPoint" />
          </mxGeometry>
        </mxCell>
        <mxCell id="G66V92S9Or8h3i_YCEw--1" value="Grade" style="whiteSpace=wrap;html=1;align=center;" parent="1" vertex="1">
          <mxGeometry x="522.5" y="-120" width="100" height="40" as="geometry" />
        </mxCell>
        <mxCell id="QalJcyVQs0sEGU517PmC-4" style="edgeStyle=orthogonalEdgeStyle;rounded=0;orthogonalLoop=1;jettySize=auto;html=1;exitX=1;exitY=1;exitDx=0;exitDy=0;entryX=1;entryY=0;entryDx=0;entryDy=0;" edge="1" parent="1" source="G66V92S9Or8h3i_YCEw--3" target="G66V92S9Or8h3i_YCEw--1">
          <mxGeometry relative="1" as="geometry" />
        </mxCell>
        <mxCell id="G66V92S9Or8h3i_YCEw--3" value="StID" style="ellipse;whiteSpace=wrap;html=1;align=center;" parent="1" vertex="1">
          <mxGeometry x="676.4" y="-190" width="100" height="40" as="geometry" />
        </mxCell>
        <mxCell id="QalJcyVQs0sEGU517PmC-5" style="edgeStyle=orthogonalEdgeStyle;rounded=0;orthogonalLoop=1;jettySize=auto;html=1;exitX=0.5;exitY=1;exitDx=0;exitDy=0;entryX=0;entryY=0;entryDx=0;entryDy=0;" edge="1" parent="1" source="G66V92S9Or8h3i_YCEw--6" target="G66V92S9Or8h3i_YCEw--1">
          <mxGeometry relative="1" as="geometry" />
        </mxCell>
        <mxCell id="G66V92S9Or8h3i_YCEw--6" value="ID" style="ellipse;whiteSpace=wrap;html=1;align=center;" parent="1" vertex="1">
          <mxGeometry x="407.58" y="-200" width="100" height="40" as="geometry" />
        </mxCell>
        <mxCell id="G66V92S9Or8h3i_YCEw--9" value="StudiesOn" style="whiteSpace=wrap;html=1;align=center;" parent="1" vertex="1">
          <mxGeometry x="522.5" y="166.88" width="100" height="40" as="geometry" />
        </mxCell>
        <mxCell id="G66V92S9Or8h3i_YCEw--12" style="edgeStyle=orthogonalEdgeStyle;rounded=0;orthogonalLoop=1;jettySize=auto;html=1;exitX=1;exitY=0.5;exitDx=0;exitDy=0;entryX=0;entryY=0.5;entryDx=0;entryDy=0;" parent="1" source="G66V92S9Or8h3i_YCEw--10" target="G66V92S9Or8h3i_YCEw--9" edge="1">
          <mxGeometry relative="1" as="geometry" />
        </mxCell>
        <mxCell id="G66V92S9Or8h3i_YCEw--10" value="CID" style="ellipse;whiteSpace=wrap;html=1;align=center;" parent="1" vertex="1">
          <mxGeometry x="407.58" y="280" width="92.42" height="40" as="geometry" />
        </mxCell>
        <mxCell id="G66V92S9Or8h3i_YCEw--13" style="edgeStyle=orthogonalEdgeStyle;rounded=0;orthogonalLoop=1;jettySize=auto;html=1;exitX=0;exitY=0.5;exitDx=0;exitDy=0;entryX=1;entryY=0.5;entryDx=0;entryDy=0;" parent="1" source="G66V92S9Or8h3i_YCEw--11" target="G66V92S9Or8h3i_YCEw--9" edge="1">
          <mxGeometry relative="1" as="geometry" />
        </mxCell>
        <mxCell id="G66V92S9Or8h3i_YCEw--11" value="StiD" style="ellipse;whiteSpace=wrap;html=1;align=center;" parent="1" vertex="1">
          <mxGeometry x="600" y="280" width="100" height="40" as="geometry" />
        </mxCell>
        <mxCell id="G66V92S9Or8h3i_YCEw--18" style="edgeStyle=orthogonalEdgeStyle;rounded=0;orthogonalLoop=1;jettySize=auto;html=1;exitX=0.5;exitY=1;exitDx=0;exitDy=0;" parent="1" source="G66V92S9Or8h3i_YCEw--16" target="ABSDRnwuosa7NFPbyCO2-2" edge="1">
          <mxGeometry relative="1" as="geometry" />
        </mxCell>
        <mxCell id="G66V92S9Or8h3i_YCEw--16" value="Scores" style="shape=rhombus;perimeter=rhombusPerimeter;whiteSpace=wrap;html=1;align=center;" parent="1" vertex="1">
          <mxGeometry x="805.6700000000001" y="-120" width="120" height="60" as="geometry" />
        </mxCell>
        <mxCell id="QalJcyVQs0sEGU517PmC-7" style="edgeStyle=orthogonalEdgeStyle;rounded=0;orthogonalLoop=1;jettySize=auto;html=1;exitX=0.5;exitY=1;exitDx=0;exitDy=0;entryX=0.75;entryY=0;entryDx=0;entryDy=0;" edge="1" parent="1" source="QalJcyVQs0sEGU517PmC-6" target="ABSDRnwuosa7NFPbyCO2-42">
          <mxGeometry relative="1" as="geometry" />
        </mxCell>
        <mxCell id="QalJcyVQs0sEGU517PmC-6" value="ID" style="ellipse;whiteSpace=wrap;html=1;align=center;" vertex="1" parent="1">
          <mxGeometry x="190" y="-180" width="100" height="40" as="geometry" />
        </mxCell>
        <mxCell id="QalJcyVQs0sEGU517PmC-9" style="edgeStyle=orthogonalEdgeStyle;rounded=0;orthogonalLoop=1;jettySize=auto;html=1;exitX=1;exitY=0.5;exitDx=0;exitDy=0;" edge="1" parent="1" source="QalJcyVQs0sEGU517PmC-8" target="ABSDRnwuosa7NFPbyCO2-42">
          <mxGeometry relative="1" as="geometry" />
        </mxCell>
        <mxCell id="QalJcyVQs0sEGU517PmC-8" value="Date" style="ellipse;whiteSpace=wrap;html=1;align=center;" vertex="1" parent="1">
          <mxGeometry x="-4.329999999999984" y="-90" width="100" height="40" as="geometry" />
        </mxCell>
        <mxCell id="QalJcyVQs0sEGU517PmC-13" style="edgeStyle=orthogonalEdgeStyle;rounded=0;orthogonalLoop=1;jettySize=auto;html=1;exitX=1;exitY=0.5;exitDx=0;exitDy=0;entryX=0;entryY=0.5;entryDx=0;entryDy=0;" edge="1" parent="1" source="QalJcyVQs0sEGU517PmC-12" target="G66V92S9Or8h3i_YCEw--1">
          <mxGeometry relative="1" as="geometry" />
        </mxCell>
        <mxCell id="QalJcyVQs0sEGU517PmC-12" value="Values" style="ellipse;whiteSpace=wrap;html=1;align=center;" vertex="1" parent="1">
          <mxGeometry x="367.58" y="-120" width="100" height="40" as="geometry" />
        </mxCell>
        <mxCell id="QalJcyVQs0sEGU517PmC-17" style="edgeStyle=orthogonalEdgeStyle;rounded=0;orthogonalLoop=1;jettySize=auto;html=1;exitX=0.5;exitY=1;exitDx=0;exitDy=0;entryX=1;entryY=0.5;entryDx=0;entryDy=0;entryPerimeter=0;startArrow=none;" edge="1" parent="1" source="QalJcyVQs0sEGU517PmC-22" target="ABSDRnwuosa7NFPbyCO2-18">
          <mxGeometry relative="1" as="geometry" />
        </mxCell>
        <mxCell id="QalJcyVQs0sEGU517PmC-16" value="ExamDetail&lt;br&gt;" style="whiteSpace=wrap;html=1;align=center;" vertex="1" parent="1">
          <mxGeometry x="180" y="-20" width="100" height="50" as="geometry" />
        </mxCell>
        <mxCell id="QalJcyVQs0sEGU517PmC-19" value="Relationship" style="shape=rhombus;perimeter=rhombusPerimeter;whiteSpace=wrap;html=1;align=center;" vertex="1" parent="1">
          <mxGeometry x="350" y="156.88" width="120" height="60" as="geometry" />
        </mxCell>
        <mxCell id="QalJcyVQs0sEGU517PmC-20" value="" style="edgeStyle=orthogonalEdgeStyle;rounded=0;orthogonalLoop=1;jettySize=auto;html=1;exitX=1;exitY=0.5;exitDx=0;exitDy=0;entryX=0.25;entryY=1;entryDx=0;entryDy=0;endArrow=none;" edge="1" parent="1" source="ABSDRnwuosa7NFPbyCO2-1" target="QalJcyVQs0sEGU517PmC-19">
          <mxGeometry relative="1" as="geometry">
            <mxPoint x="547.5" y="206.8800000000001" as="targetPoint" />
            <Array as="points" />
            <mxPoint x="310" y="200" as="sourcePoint" />
          </mxGeometry>
        </mxCell>
        <mxCell id="QalJcyVQs0sEGU517PmC-18" value="Relationship" style="shape=rhombus;perimeter=rhombusPerimeter;whiteSpace=wrap;html=1;align=center;" vertex="1" parent="1">
          <mxGeometry x="656.4" y="157.05" width="120" height="60" as="geometry" />
        </mxCell>
        <mxCell id="QalJcyVQs0sEGU517PmC-21" value="" style="edgeStyle=orthogonalEdgeStyle;rounded=0;orthogonalLoop=1;jettySize=auto;html=1;exitX=0;exitY=0.5;exitDx=0;exitDy=0;entryX=0.75;entryY=1;entryDx=0;entryDy=0;endArrow=none;" edge="1" parent="1" source="ABSDRnwuosa7NFPbyCO2-2" target="QalJcyVQs0sEGU517PmC-18">
          <mxGeometry relative="1" as="geometry">
            <mxPoint x="790" y="200" as="sourcePoint" />
            <Array as="points">
              <mxPoint x="790" y="190" />
            </Array>
            <mxPoint x="597.5" y="206.8800000000001" as="targetPoint" />
          </mxGeometry>
        </mxCell>
        <mxCell id="QalJcyVQs0sEGU517PmC-22" value="Relationship" style="shape=rhombus;perimeter=rhombusPerimeter;whiteSpace=wrap;html=1;align=center;" vertex="1" parent="1">
          <mxGeometry x="160" y="50" width="120" height="60" as="geometry" />
        </mxCell>
        <mxCell id="QalJcyVQs0sEGU517PmC-23" value="" style="edgeStyle=orthogonalEdgeStyle;rounded=0;orthogonalLoop=1;jettySize=auto;html=1;exitX=0.5;exitY=1;exitDx=0;exitDy=0;entryX=1;entryY=0.5;entryDx=0;entryDy=0;entryPerimeter=0;endArrow=none;" edge="1" parent="1" source="QalJcyVQs0sEGU517PmC-16" target="QalJcyVQs0sEGU517PmC-22">
          <mxGeometry relative="1" as="geometry">
            <mxPoint x="230" y="30" as="sourcePoint" />
            <mxPoint x="229.28152422706626" y="180" as="targetPoint" />
          </mxGeometry>
        </mxCell>
        <mxCell id="QalJcyVQs0sEGU517PmC-24" value="Relationship" style="shape=rhombus;perimeter=rhombusPerimeter;whiteSpace=wrap;html=1;align=center;" vertex="1" parent="1">
          <mxGeometry x="140" y="-80" width="120" height="60" as="geometry" />
        </mxCell>
        <mxCell id="QalJcyVQs0sEGU517PmC-25" value="ExID" style="ellipse;whiteSpace=wrap;html=1;align=center;" vertex="1" parent="1">
          <mxGeometry x="40.670000000000016" y="-10" width="100" height="40" as="geometry" />
        </mxCell>
        <mxCell id="QalJcyVQs0sEGU517PmC-26" value="CID" style="ellipse;whiteSpace=wrap;html=1;align=center;" vertex="1" parent="1">
          <mxGeometry x="290" y="-60" width="100" height="40" as="geometry" />
        </mxCell>
        <mxCell id="QalJcyVQs0sEGU517PmC-27" value="ID&lt;br&gt;" style="ellipse;whiteSpace=wrap;html=1;align=center;" vertex="1" parent="1">
          <mxGeometry x="300" y="-10" width="100" height="40" as="geometry" />
        </mxCell>
      </root>
    </mxGraphModel>
  </diagram>
</mxfile>
